<svg xmlns="http://www.w3.org/2000/svg" xmlns:xlink="http://www.w3.org/1999/xlink" version="1.1" viewBox="0 0 172 172"><g fill="none" fill-rule="nonzero" stroke="none" stroke-width="1" stroke-linecap="butt" stroke-linejoin="miter" stroke-miterlimit="10" stroke-dasharray="" stroke-dashoffset="0" font-family="none" font-weight="none" font-size="none" text-anchor="none" style="mix-blend-mode: normal"><path d="M0,172v-172h172v172z" fill="none"/><g fill="#9d1111"><path d="M41.28,134.16h110.08v-127.28h-110.08c-11.38296,0 -20.64,9.25704 -20.64,20.64v118.39448c0,10.58832 9.25704,19.20552 20.64,19.20552h110.08v-6.88h-110.08c-7.45792,0 -13.76,-5.64504 -13.76,-12.32552c0,-6.59104 6.04408,-11.75448 13.76,-11.75448zM73.33392,48.16c4.78504,0 9.288,1.97112 12.66608,5.06712c3.37808,-3.096 7.88104,-5.06712 12.66608,-5.06712c10.1308,0 18.29392,8.16312 18.29392,18.01184c0,16.38816 -31.24208,36.3092 -31.24208,36.3092c0,0 -30.67792,-19.92104 -30.67792,-36.3092c0,-9.84872 8.16312,-18.01184 18.29392,-18.01184z"/></g></g></svg>